<svg xmlns="http://www.w3.org/2000/svg" viewBox="0 0 286 58.71"><defs><style>.cls-1{fill:#fff;}</style></defs><title>Asset 5</title><g id="Layer_2" data-name="Layer 2"><g id="Layer_1-2" data-name="Layer 1"><polygon class="cls-1" points="11 38.21 32 38.21 32 28.21 11 28.21 11 12.21 38 12.21 38 1.21 0 1.21 0.5 58.71 39.5 58.71 39.5 49.21 11 49.21 11 38.21"/><polygon class="cls-1" points="78.5 24.71 56 1.21 50 1.21 50 58.21 61 58.21 61 27.21 77.5 43.71 96 25.21 96 58.21 108 58.21 108 1.21 102 1.21 78.5 24.71"/><path class="cls-1" d="M120,1.21v57h12v-13s30,3,30-22C162-7.79,120,1.21,120,1.21Zm12,32v-21s18-4,18,10C150,38.21,132,33.21,132,33.21Z"/><rect class="cls-1" x="170" y="1.21" width="13" height="57"/><path class="cls-1" d="M237,21.21c0-27-43-20-43-20v57h12v-14h8l9,14h14l-11-17S237,36.25,237,21.21Zm-31,12v-21s18-4,18,10C224,38.21,206,33.21,206,33.21Z"/><polygon class="cls-1" points="286 12.21 286 1.21 246 1.21 246 58.21 286 58.21 286 48.21 258 48.21 258 39.21 278 39.21 278 29.21 258 29.21 258 12.21 286 12.21"/></g></g></svg>